<svg id="Layer_1" data-name="Layer 1" xmlns="http://www.w3.org/2000/svg" viewBox="0 0 149.78 47.63"><defs><style>.cls-1{fill:#1d1d1b;}</style></defs><title>neat_logo</title><path class="cls-1" d="M88.57,95.58V67.7c0-3.17-1.44-6.48-7-6.48a14.66,14.66,0,0,0-6,1.08V95.58H66.75V58.48c3.67-1.73,8.64-2.81,15.19-2.81,11.59,0,14.41,5.62,14.41,11.88v28H88.57Z" transform="translate(-66.75 -48.29)"/><path class="cls-1" d="M117,79c0.72,7.2,4.18,10.8,10.58,10.8a21.18,21.18,0,0,0,9.79-2.16l2.09,5.54c-2.74,1.51-6.91,2.74-12.82,2.74-11,0-18-7.13-18-20.23,0-12.67,6.41-20,16.56-20s15.91,6.84,15.55,19.87ZM125,61.07c-5.11,0-8.64,4.18-8.42,13.47l16.06-2.45C132.6,64.24,129.79,61.07,125,61.07Z" transform="translate(-66.75 -48.29)"/><path class="cls-1" d="M176.48,72.59c-0.72-7.2-4.18-10.8-10.58-10.8A21.18,21.18,0,0,0,156.11,64L154,58.41c2.74-1.51,6.91-2.74,12.82-2.74,11,0,18,7.13,18,20.23,0,12.67-6.41,20-16.56,20s-15.91-6.84-15.55-19.87Zm-7.92,17.93c5.11,0,8.64-4.18,8.42-13.46l-16.06,2.45C160.93,87.36,163.74,90.52,168.56,90.52Z" transform="translate(-66.75 -48.29)"/><path class="cls-1" d="M216.53,64.62V60L206,61.35V48.29h-8.79V85.41c0,5.4,3,10.51,10.66,10.51a11.42,11.42,0,0,0,4.46-.79V89.66a6.68,6.68,0,0,1-2.09.36c-3,0-4.25-2-4.25-5V66.11Z" transform="translate(-66.75 -48.29)"/></svg>